<svg xmlns="http://www.w3.org/2000/svg" xmlns:xlink="http://www.w3.org/1999/xlink" viewBox="0 0 64 64"><defs><style>.cls-1{fill:url(#linear-gradient);}.cls-2{fill:#9db8d3;}.cls-3{fill:url(#linear-gradient-2);}.cls-4{fill:#0668cb;}.cls-5{fill:url(#linear-gradient-3);}.cls-6{fill:url(#linear-gradient-4);}.cls-7{fill:#4795ea;}</style><linearGradient id="linear-gradient" x1="32" y1="48" x2="32" y2="11" gradientUnits="userSpaceOnUse"><stop offset="0" stop-color="#54a5ff"/><stop offset="1" stop-color="#8ad3fe"/></linearGradient><linearGradient id="linear-gradient-2" x1="57" y1="36.5" x2="61" y2="36.5" gradientUnits="userSpaceOnUse"><stop offset="0" stop-color="#fe9661"/><stop offset="1" stop-color="#ffb369"/></linearGradient><linearGradient id="linear-gradient-3" x1="27.5" y1="28" x2="27.5" y2="16" gradientUnits="userSpaceOnUse"><stop offset="0" stop-color="#d3e6f5"/><stop offset="1" stop-color="#f0f7fc"/></linearGradient><linearGradient id="linear-gradient-4" x1="39" y1="44" x2="39" xlink:href="#linear-gradient-3"/></defs><title>Bus</title><g id="Bus"><path class="cls-1" d="M61,32.4V46a2,2,0,0,1-2,2H56a5,5,0,0,0-10,0H19A5,5,0,0,0,9,48H5a2,2,0,0,1-2-2V15a4,4,0,0,1,4-4H46.44a4,4,0,0,1,4,3.53c0,.22,1.47,12.52,1.58,13.47l6.65,1.47A3,3,0,0,1,61,32.4Z"/><circle class="cls-2" cx="14" cy="48" r="5"/><circle class="cls-2" cx="51" cy="48" r="5"/><path class="cls-3" d="M61,39H59.5a2.5,2.5,0,0,1,0-5H61Z"/><path class="cls-4" d="M3,44h8a5,5,0,0,0-2,4H5a2,2,0,0,1-2-2Z"/><path class="cls-4" d="M17,44H48a5,5,0,0,0-2,4H19A5,5,0,0,0,17,44Z"/><path class="cls-4" d="M61,44v2a2,2,0,0,1-2,2H56a5,5,0,0,0-2-4Z"/><path class="cls-5" d="M52,28,50.59,16H3V28Z"/><rect class="cls-6" x="33" y="16" width="12" height="28"/><path class="cls-7" d="M52,28l-.12-1H46V17h4.71c-.15-1.23-.09-.77-.24-2H4a1,1,0,0,0-1,1V28a1,1,0,0,0,1,1H32v3H8a1,1,0,0,0,0,2H32v9a1,1,0,0,0,1,1H45a1,1,0,0,0,1-1V29H56.52ZM12,27H5V17h7Zm10,0H14V17h8Zm2,0V17h8V27ZM34,42V17H44V27H38a1,1,0,0,0,0,2h6V42Z"/></g></svg>